<svg xmlns="http://www.w3.org/2000/svg" viewBox="0 0 1200 900" role="img" aria-labelledby="xrTitle xrDesc">
  <title id="xrTitle">Publication placeholder for XR papers</title>
  <desc id="xrDesc">Abstract preview artwork with immersive interface panels.</desc>
  <defs>
    <linearGradient id="xrBg" x1="0%" y1="0%" x2="100%" y2="100%">
      <stop offset="0%" stop-color="#f6f8fc"/>
      <stop offset="100%" stop-color="#e0ebf8"/>
    </linearGradient>
    <linearGradient id="xrPanel" x1="0%" y1="0%" x2="100%" y2="100%">
      <stop offset="0%" stop-color="#17325f"/>
      <stop offset="100%" stop-color="#28539a"/>
    </linearGradient>
  </defs>
  <rect width="1200" height="900" fill="url(#xrBg)"/>
  <circle cx="910" cy="182" r="114" fill="#d0e0f4"/>
  <circle cx="1010" cy="702" r="134" fill="#d9e7f7"/>
  <rect x="88" y="92" width="1024" height="716" rx="34" fill="#ffffff" opacity="0.94"/>
  <rect x="148" y="150" width="434" height="544" rx="26" fill="url(#xrPanel)"/>
  <rect x="640" y="166" width="358" height="34" rx="17" fill="#bfd2ea"/>
  <rect x="640" y="226" width="418" height="20" rx="10" fill="#d4e2f2"/>
  <rect x="640" y="264" width="386" height="20" rx="10" fill="#d4e2f2"/>
  <rect x="640" y="302" width="344" height="20" rx="10" fill="#d4e2f2"/>
  <rect x="640" y="380" width="390" height="252" rx="24" fill="#eef4fb"/>
  <rect x="690" y="432" width="288" height="144" rx="26" fill="#dde9f7" stroke="#4d77ad" stroke-width="10"/>
  <rect x="760" y="474" width="150" height="42" rx="21" fill="#4d77ad"/>
  <circle cx="322" cy="368" r="98" fill="#5f8ac2" opacity="0.42"/>
  <rect x="248" y="318" width="148" height="92" rx="30" fill="#ffffff" opacity="0.95"/>
  <rect x="222" y="436" width="198" height="18" rx="9" fill="#dce8f8" opacity="0.96"/>
  <rect x="198" y="476" width="246" height="18" rx="9" fill="#dce8f8" opacity="0.78"/>
  <text x="182" y="236" fill="#ffffff" font-family="Trebuchet MS, Helvetica, sans-serif" font-size="46" font-weight="700">XR Preview</text>
  <text x="182" y="290" fill="#dce6f6" font-family="Trebuchet MS, Helvetica, sans-serif" font-size="30">Use this as a temporary teaser card</text>
  <text x="160" y="754" fill="#5f748f" font-family="Trebuchet MS, Helvetica, sans-serif" font-size="28">Suggested path: /images/publications/your-paper-teaser.png</text>
</svg>
